<svg width="39" height="39" viewBox="0 0 39 39" fill="none" xmlns="http://www.w3.org/2000/svg">
<path d="M39 19.5C39 8.73057 30.2694 0 19.5 0C8.73057 0 0 8.73057 0 19.5C0 30.2694 8.73057 39 19.5 39C30.2694 39 39 30.2667 39 19.5Z" fill="#666666"/>
<path d="M25.0883 12.5222C26.6292 12.5222 27.8756 11.273 27.8756 9.73487C27.8756 8.19402 26.6264 6.94758 25.0883 6.94758C23.5475 6.94758 22.2983 8.19677 22.2983 9.73487C22.301 11.273 23.5475 12.5222 25.0883 12.5222Z" fill="#F5EDE2"/>
<path d="M25.9028 14.0382C25.6937 13.9612 25.4268 13.9172 25.0883 13.9172C24.0538 13.9172 23.4347 14.3272 22.9752 14.8885C22.8816 14.9985 22.7963 15.1141 22.7193 15.2379C21.9076 16.4651 21.5251 18.0995 19.511 18.0995C17.9702 18.0995 16.7237 16.8503 16.7237 15.3094V9.73212C16.7237 8.19127 15.4745 6.94483 13.9364 6.94483C12.3956 6.94483 11.1491 8.19402 11.1491 9.73212V29.2514C11.1491 30.7922 12.3983 32.0414 13.9364 32.0414C15.4773 32.0414 16.7237 30.7922 16.7237 29.2514V25.0691C16.7237 23.5282 17.9729 22.2818 19.511 22.2818C21.0519 22.2818 22.301 23.531 22.301 25.0691V29.2514C22.301 30.7922 23.5502 32.0414 25.0883 32.0414C26.6292 32.0414 27.8756 30.7922 27.8756 29.2514V16.7485H27.8729C27.8729 16.732 27.8756 16.7182 27.8756 16.7017C27.8784 15.447 27.0447 14.3849 25.9028 14.0382Z" fill="#F5EDE2"/>
</svg>
