<?xml version="1.0" encoding="UTF-8" standalone="no"?>
<!-- Generator: Adobe Illustrator 26.1.0, SVG Export Plug-In . SVG Version: 6.00 Build 0)  -->

<svg
   version="1.1"
   id="Слой_1"
   x="0px"
   y="0px"
   viewBox="0 0 70.500002 70.499998"
   xml:space="preserve"
   width="70.5"
   height="70.5"
   xmlns="http://www.w3.org/2000/svg"
   xmlns:svg="http://www.w3.org/2000/svg"><defs
   id="defs22">
	
	
</defs>
<style
   type="text/css"
   id="style1">
	.st0{fill:#E63E11;}
	.st1{fill:#F18926;}
	.st2{enable-background:new    ;}
	.st3{fill:#13017C;}
</style>
<path
   class="st1"
   d="M 35.25,0 C 15.77,0 -3.7375868e-7,15.77 -3.7375868e-7,35.25 -3.7375868e-7,54.73 15.77,70.5 35.25,70.5 54.73,70.5 70.5,54.73 70.5,35.25 70.5,15.77 54.74,0 35.25,0 Z m 15.19,52.84 c -0.0068,2.799992 -2.28,5.02 -5.02,5.02 -2.8,0 -5.02,-2.28 -5.02,-5.02 v -7.56 c 0,-2.8 -2.28,-5.02 -5.02,-5.02 -2.8,0 -5.02,2.28 -5.02,5.02 v 7.56 c 0,2.8 -2.28,5.02 -5.02,5.02 -2.8,0 -5.02,-2.28 -5.02,-5.02 V 17.53 c 0,-2.8 2.28,-5.02 5.02,-5.02 2.8,0 5.02,2.28 5.02,5.02 v 10.1 c 0,2.8 2.28,5.02 5.02,5.02 3.65,0 4.3,-2.93 5.8,-5.15 0.13,-0.2 0.26,-0.46 0.46,-0.65 0.85,-1.04 1.95,-1.76 3.84,-1.76 0.59,0 1.11,0.07 1.5,0.2 2.09,0.65 3.58,2.54 3.58,4.82 z M 45.35,22.61 c -2.8,0 -5.02,-2.28 -5.02,-5.02 0,-2.8 2.28,-5.02 5.02,-5.02 2.8,0 5.02,2.28 5.02,5.02 0.07,2.74 -2.21,5.02 -5.02,5.02 z"
   id="path1" />
</svg>
