<svg width="151" height="56" viewBox="0 0 151 56" fill="none" xmlns="http://www.w3.org/2000/svg">
<path d="M56 28C56 12.5362 43.4638 0 28 0C12.5362 0 0 12.5362 0 28C0 43.4638 12.5362 56 28 56C43.4638 56 56 43.4599 56 28Z" fill="white"/>
<path d="M36.0243 17.9805C38.2368 17.9805 40.0265 16.1868 40.0265 13.9783C40.0265 11.7658 38.2328 9.97601 36.0243 9.97601C33.8118 9.97601 32.0181 11.7697 32.0181 13.9783C32.022 16.1868 33.8118 17.9805 36.0243 17.9805Z" fill="#D86442"/>
<path d="M37.1937 20.1575C36.8935 20.0469 36.5102 19.9836 36.0243 19.9836C34.5387 19.9836 33.6498 20.5723 32.99 21.3783C32.8556 21.5363 32.7332 21.7023 32.6225 21.8801C31.457 23.6422 30.9079 25.989 28.0158 25.989C25.8033 25.989 24.0136 24.1953 24.0136 21.9828V13.9743C24.0136 11.7618 22.2198 9.97207 20.0113 9.97207C17.7988 9.97207 16.009 11.7658 16.009 13.9743V42.002C16.009 44.2145 17.8027 46.0082 20.0113 46.0082C22.2238 46.0082 24.0136 44.2145 24.0136 42.002V35.9966C24.0136 33.7841 25.8073 31.9944 28.0158 31.9944C30.2283 31.9944 32.022 33.7881 32.022 35.9966V42.002C32.022 44.2145 33.8157 46.0082 36.0243 46.0082C38.2368 46.0082 40.0265 44.2145 40.0265 42.002V24.0491H40.0226C40.0226 24.0254 40.0265 24.0056 40.0265 23.9819C40.0305 22.1803 38.8334 20.6553 37.1937 20.1575Z" fill="#D86442"/>
<path d="M74.2699 17.7273V18.5085H70.7614V25H69.8807V17.7273H74.2699ZM75.7162 25.0994V24.2756H76.1707C76.3459 24.2756 76.4927 24.2412 76.611 24.1726C76.7318 24.1039 76.8312 24.0152 76.9093 23.9062C76.9898 23.7973 77.0561 23.6837 77.1082 23.5653L77.2218 23.2955L74.7076 17.7273H75.6593L77.6622 22.2443L79.4946 17.7273H80.4321L77.9179 23.821C77.8184 24.0483 77.7048 24.259 77.577 24.4531C77.4515 24.6473 77.2798 24.8035 77.062 24.9219C76.8466 25.0402 76.5542 25.0994 76.1849 25.0994H75.7162ZM81.2729 17.7273H82.324L84.7956 23.7642H84.8808L87.3524 17.7273H88.4036V25H87.5797V19.4744H87.5087L85.2359 25H84.4405L82.1678 19.4744H82.0967V25H81.2729V17.7273ZM90.1676 25H89.2444L91.9148 17.7273H92.8239L95.4944 25H94.5711L92.3978 18.8778H92.3409L90.1676 25ZM90.5086 22.1591H94.2301V22.9403H90.5086V22.1591ZM96.3272 25V17.7273H97.2078V20.9659H101.086V17.7273H101.966V25H101.086V21.7472H97.2078V25H96.3272ZM103.43 17.7273H104.296V23.4517H104.367L108.344 17.7273H109.197V25H108.316V19.2898H108.245L104.282 25H103.43V17.7273ZM110.261 18.5085V17.7273H115.716V18.5085H113.429V25H112.548V18.5085H110.261ZM116.224 25H115.3L117.971 17.7273H118.88L121.55 25H120.627L118.454 18.8778H118.397L116.224 25ZM116.564 22.1591H120.286V22.9403H116.564V22.1591ZM122.383 25V17.7273H124.84C125.411 17.7273 125.877 17.8303 126.24 18.0362C126.604 18.2398 126.874 18.5156 127.049 18.8636C127.224 19.2116 127.312 19.5999 127.312 20.0284C127.312 20.4569 127.224 20.8464 127.049 21.1967C126.876 21.5471 126.609 21.8265 126.247 22.0348C125.884 22.2408 125.42 22.3438 124.855 22.3438H123.093V21.5625H124.826C125.217 21.5625 125.531 21.495 125.767 21.3601C126.004 21.2251 126.176 21.0429 126.282 20.8132C126.391 20.5812 126.446 20.3196 126.446 20.0284C126.446 19.7372 126.391 19.4768 126.282 19.2472C126.176 19.0175 126.003 18.8376 125.764 18.7074C125.525 18.5748 125.207 18.5085 124.812 18.5085H123.264V25H122.383ZM128.431 25V17.7273H129.311V20.9659H133.189V17.7273H134.07V25H133.189V21.7472H129.311V25H128.431ZM136.186 20.7812H138.26C138.781 20.7812 139.22 20.8665 139.578 21.0369C139.938 21.2074 140.21 21.4477 140.395 21.7578C140.582 22.0679 140.675 22.4337 140.675 22.8551C140.675 23.2765 140.582 23.6482 140.395 23.9702C140.21 24.2921 139.938 24.5443 139.578 24.7266C139.22 24.9089 138.781 25 138.26 25H135.533V17.7273H136.414V24.233H138.26C138.592 24.233 138.872 24.1667 139.102 24.0341C139.334 23.8991 139.509 23.7263 139.627 23.5156C139.748 23.3026 139.809 23.0777 139.809 22.8409C139.809 22.4929 139.675 22.1934 139.407 21.9425C139.14 21.6892 138.757 21.5625 138.26 21.5625H136.186V20.7812ZM142.266 17.7273V25H141.385V17.7273H142.266ZM143.729 17.7273H144.596V23.4517H144.667L148.644 17.7273H149.496V25H148.615V19.2898H148.544L144.581 25H143.729V17.7273ZM147.309 15.9091H148.09C148.09 16.2926 147.957 16.6063 147.692 16.8501C147.427 17.094 147.067 17.2159 146.613 17.2159C146.165 17.2159 145.809 17.094 145.544 16.8501C145.281 16.6063 145.15 16.2926 145.15 15.9091H145.931C145.931 16.0937 145.982 16.2559 146.084 16.3956C146.188 16.5353 146.364 16.6051 146.613 16.6051C146.861 16.6051 147.039 16.5353 147.145 16.3956C147.254 16.2559 147.309 16.0937 147.309 15.9091Z" fill="white"/>
<path d="M69.8807 32.7273H70.7472V38.4517H70.8182L74.7955 32.7273H75.6477V40H74.767V34.2898H74.696L70.733 40H69.8807V32.7273ZM77.01 40V32.7273H77.8907V35.9659H81.7685V32.7273H82.6492V40H81.7685V36.7472H77.8907V40H77.01ZM89.8646 35H88.9839C88.9318 34.7467 88.8407 34.5241 88.7105 34.3324C88.5826 34.1406 88.4264 33.9796 88.2417 33.8494C88.0594 33.7169 87.857 33.6174 87.6345 33.5511C87.4119 33.4848 87.1799 33.4517 86.9385 33.4517C86.4981 33.4517 86.0992 33.563 85.7417 33.7855C85.3866 34.008 85.1037 34.3359 84.893 34.7692C84.6847 35.2024 84.5805 35.7339 84.5805 36.3636C84.5805 36.9934 84.6847 37.5249 84.893 37.9581C85.1037 38.3913 85.3866 38.7192 85.7417 38.9418C86.0992 39.1643 86.4981 39.2756 86.9385 39.2756C87.1799 39.2756 87.4119 39.2424 87.6345 39.1761C87.857 39.1098 88.0594 39.0116 88.2417 38.8814C88.4264 38.7488 88.5826 38.5866 88.7105 38.3949C88.8407 38.2008 88.9318 37.9782 88.9839 37.7273H89.8646C89.7983 38.099 89.6776 38.4316 89.5024 38.7251C89.3272 39.0187 89.1094 39.2685 88.849 39.4744C88.5886 39.678 88.2962 39.8331 87.9718 39.9396C87.6499 40.0462 87.3054 40.0994 86.9385 40.0994C86.3182 40.0994 85.7666 39.9479 85.2836 39.6449C84.8007 39.3419 84.4207 38.911 84.1437 38.3523C83.8667 37.7936 83.7282 37.1307 83.7282 36.3636C83.7282 35.5966 83.8667 34.9337 84.1437 34.375C84.4207 33.8163 84.8007 33.3854 85.2836 33.0824C85.7666 32.7794 86.3182 32.6278 86.9385 32.6278C87.3054 32.6278 87.6499 32.6811 87.9718 32.7876C88.2962 32.8942 88.5886 33.0504 88.849 33.2564C89.1094 33.46 89.3272 33.7086 89.5024 34.0021C89.6776 34.2933 89.7983 34.6259 89.8646 35ZM90.49 33.5085V32.7273H95.9445V33.5085H93.6576V40H92.7769V33.5085H90.49ZM96.9037 32.7273H97.7702V38.4517H97.8412L101.819 32.7273H102.671V40H101.79V34.2898H101.719L97.756 40H96.9037V32.7273ZM103.635 33.5085V32.7273H109.09V33.5085H106.803V40H105.922V33.5085H103.635ZM110.433 40.0994V39.2756H110.887C111.062 39.2756 111.209 39.2412 111.327 39.1726C111.448 39.1039 111.548 39.0152 111.626 38.9062C111.706 38.7973 111.773 38.6837 111.825 38.5653L111.938 38.2955L109.424 32.7273H110.376L112.379 37.2443L114.211 32.7273H115.148L112.634 38.821C112.535 39.0483 112.421 39.259 112.293 39.4531C112.168 39.6473 111.996 39.8035 111.778 39.9219C111.563 40.0402 111.271 40.0994 110.901 40.0994H110.433ZM115.951 33.5085V32.7273H121.405V33.5085H119.118V40H118.237V33.5085H115.951Z" fill="white"/>
</svg>
