<svg width="154" height="62" viewBox="0 0 154 62" fill="none" xmlns="http://www.w3.org/2000/svg">
<path d="M72.3664 12.2897C72.9758 12.2897 73.5236 12.4313 74.0222 12.696C74.5208 12.9668 74.9085 13.3362 75.1978 13.804L74.4038 14.3949C73.9114 13.6378 73.2466 13.2561 72.3972 13.2561C71.7201 13.2561 71.1477 13.4839 70.7045 13.9455C70.2551 14.401 70.0274 14.9796 70.0274 15.6813C70.0274 16.383 70.2551 16.9555 70.7045 17.4171C71.1538 17.8788 71.7201 18.1065 72.3972 18.1065C73.2466 18.1065 73.9114 17.731 74.4038 16.9678L75.1978 17.5587C74.9147 18.0265 74.5331 18.3958 74.0283 18.6667C73.5298 18.9375 72.9819 19.0729 72.3726 19.0729C71.4062 19.0729 70.5875 18.7467 69.9166 18.0942C69.2518 17.4479 68.9194 16.6354 68.9194 15.669C68.9194 14.7149 69.258 13.9025 69.9289 13.25C70.5998 12.5914 71.4123 12.2651 72.3849 12.2651L72.3664 12.2897Z" fill="white"/>
<path d="M85.3048 12.2588V18.9558H84.2461V14.4255L80.1467 19.0604H79.7773V12.3696H80.8361V16.8876L84.9416 12.2588H85.3048Z" fill="white"/>
<path d="M94.3471 13.3177H91.8358V15.072H92.7467C93.3931 15.072 93.9163 15.2505 94.304 15.6137C94.6918 15.9707 94.8888 16.4385 94.8888 17.0171C94.8888 17.5834 94.7041 18.0512 94.3102 18.4143C93.9224 18.7713 93.3992 18.956 92.7529 18.956H90.7832V12.376H94.3533L94.3471 13.3177ZM91.8296 15.9707V18.0142H92.6544C93.0237 18.0142 93.313 17.9219 93.51 17.7434C93.707 17.5649 93.8116 17.3125 93.8116 17.0048C93.8116 16.697 93.7131 16.4446 93.51 16.26C93.313 16.0692 93.036 15.983 92.6606 15.983L91.8296 15.9707Z" fill="white"/>
<path d="M105.23 12.2588V18.9496H104.177V14.4193L100.078 19.0604H99.7083V12.3634H100.761V16.8814L104.873 12.2588H105.23Z" fill="white"/>
<path d="M111.89 12.3083C112.561 12.3083 113.096 12.4991 113.509 12.8685C113.915 13.2378 114.124 13.7241 114.124 14.3211C114.124 14.9182 113.915 15.4106 113.509 15.7861C113.102 16.1677 112.561 16.3524 111.89 16.3524H111.114V18.8945H110.055V12.3145H111.89V12.3083ZM111.108 13.2563V15.4229H111.865C112.234 15.4229 112.524 15.3244 112.721 15.1213C112.918 14.9182 113.022 14.6597 113.022 14.3334C113.022 14.0072 112.924 13.7425 112.721 13.5456C112.518 13.3486 112.234 13.2439 111.865 13.2439L111.108 13.2563Z" fill="white"/>
<path d="M121.221 12.2897C121.831 12.2897 122.378 12.4313 122.877 12.696C123.375 12.9668 123.763 13.3362 124.053 13.804L123.259 14.3949C122.766 13.6378 122.101 13.2561 121.252 13.2561C120.575 13.2561 120.002 13.4839 119.559 13.9455C119.11 14.401 118.882 14.9796 118.882 15.6813C118.882 16.383 119.11 16.9555 119.559 17.4171C120.009 17.8788 120.575 18.1065 121.252 18.1065C122.101 18.1065 122.766 17.731 123.259 16.9678L124.053 17.5587C123.769 18.0265 123.388 18.3958 122.883 18.6667C122.384 18.9375 121.837 19.0729 121.227 19.0729C120.261 19.0729 119.442 18.7467 118.771 18.0942C118.107 17.4479 117.774 16.6354 117.774 15.669C117.774 14.7149 118.113 13.9025 118.784 13.25C119.455 12.5914 120.267 12.2651 121.24 12.2651L121.221 12.2897Z" fill="white"/>
<path d="M143.755 12.2588V18.9558H142.697V14.4255L138.597 19.0604H138.228V12.3696H139.287V16.8876L143.392 12.2588H143.755Z" fill="white"/>
<path d="M153.678 12.259V18.9498H152.619V14.4195L148.52 19.0545H148.15V12.3636H149.209V16.8816L153.315 12.2528H153.678V12.259ZM150.809 11.625C150.342 11.625 149.948 11.4773 149.652 11.1695C149.351 10.8617 149.203 10.4678 149.203 10H150.052C150.052 10.2462 150.12 10.4493 150.262 10.597C150.403 10.7448 150.588 10.8186 150.822 10.8186C151.05 10.8186 151.24 10.7509 151.382 10.597C151.523 10.4493 151.591 10.2462 151.591 10H152.441C152.441 10.4678 152.293 10.8556 151.991 11.1695C151.69 11.4773 151.302 11.625 150.834 11.625H150.809Z" fill="white"/>
<path d="M76.2071 30.5771C76.2071 31.4265 75.9178 32.0913 75.3392 32.5899C74.7606 33.0885 74.0158 33.3408 73.0864 33.347V34.2334H72.0277V33.347C71.1105 33.3347 70.3657 33.0762 69.781 32.5776C69.2024 32.079 68.9131 31.4081 68.9131 30.5709C68.9131 29.7338 69.2024 29.0752 69.781 28.5889C70.3596 28.1027 71.1105 27.8503 72.0338 27.8442V27.0132H73.0925V27.8442C74.022 27.8565 74.7668 28.1027 75.3454 28.5889C75.924 29.0752 76.2133 29.7338 76.2133 30.5709H76.2071V30.5771ZM69.978 30.6202C69.978 31.1865 70.1688 31.6297 70.5381 31.9497C70.9074 32.2698 71.406 32.4298 72.0338 32.4298V28.7859C71.406 28.7859 70.9074 28.946 70.5381 29.266C70.1688 29.5861 69.9903 30.0354 69.9903 30.614L69.978 30.6202ZM73.0679 32.4175C73.6958 32.4175 74.1943 32.2575 74.5637 31.9374C74.933 31.6174 75.1238 31.1803 75.1238 30.6079C75.1238 30.0293 74.9453 29.5799 74.576 29.2599C74.2066 28.9398 73.7081 28.7798 73.0802 28.7798V32.4237L73.0679 32.4175Z" fill="white"/>
<path d="M104.405 27.2595C105.076 27.2595 105.611 27.4503 106.023 27.8197C106.43 28.189 106.639 28.6753 106.639 29.2723C106.639 29.8694 106.43 30.3618 106.023 30.7373C105.611 31.1189 105.076 31.3036 104.405 31.3036H103.709V33.8457H102.65V27.2718H104.405V27.2595ZM103.703 28.2074V30.3741H104.38C104.749 30.3741 105.039 30.2756 105.236 30.0725C105.439 29.8694 105.537 29.6109 105.537 29.2846C105.537 28.9584 105.439 28.6937 105.236 28.4967C105.039 28.2998 104.749 28.1951 104.38 28.1951L103.703 28.2074Z" fill="white"/>
<path d="M112.308 32.8239H109.347L108.88 33.9196H107.753L110.652 27.2288H111.015L113.915 33.9196H112.776L112.308 32.8239ZM110.837 29.1861L109.741 31.9191H111.926L110.837 29.1861Z" fill="white"/>
<path d="M124.724 29.8755H125.364C126.053 29.8755 126.607 30.0664 127.026 30.4541C127.444 30.8419 127.653 31.3405 127.653 31.9499C127.653 32.5716 127.444 33.0702 127.026 33.4456C126.607 33.8273 126.047 34.0119 125.364 34.0119H123.665V27.4319H124.724V29.8755ZM124.724 30.8296V33.1009H125.364C125.751 33.1009 126.053 32.9901 126.262 32.7808C126.472 32.5716 126.582 32.2946 126.582 31.9499C126.582 31.6113 126.472 31.3343 126.262 31.1251C126.053 30.9158 125.751 30.805 125.364 30.805L124.724 30.8296Z" fill="white"/>
<path d="M140.093 29.783H140.807C141.497 29.783 142.051 29.9738 142.469 30.3616C142.888 30.7494 143.097 31.248 143.097 31.8573C143.097 32.479 142.888 32.9776 142.469 33.3531C142.051 33.7347 141.49 33.9194 140.807 33.9194H139.034V27.3394H140.093V29.783ZM140.093 30.7371V33.0084H140.807C141.195 33.0084 141.497 32.8976 141.706 32.6883C141.915 32.479 142.026 32.2021 142.026 31.8635C142.026 31.525 141.915 31.248 141.706 31.0387C141.497 30.8294 141.195 30.7186 140.807 30.7186L140.093 30.7371ZM144.974 33.9317H143.916V27.3517H144.974V33.9317Z" fill="white"/>
<path d="M153.678 27.2285V33.9193H152.619V29.389L148.52 34.024H148.15V27.3332H149.209V31.8512L153.315 27.2224H153.678V27.2285ZM150.809 26.5884C150.342 26.5884 149.948 26.4406 149.652 26.1329C149.351 25.8251 149.203 25.4312 149.203 24.9634H150.052C150.052 25.2096 150.12 25.4127 150.262 25.5604C150.403 25.7082 150.588 25.782 150.822 25.782C151.05 25.782 151.24 25.7143 151.382 25.5604C151.523 25.4127 151.591 25.2096 151.591 24.9634H152.441C152.441 25.4312 152.293 25.819 151.991 26.1329C151.69 26.4406 151.302 26.5884 150.834 26.5884H150.809Z" fill="white"/>
<path d="M74.8899 42.303L72.6063 47.5966C72.2062 48.526 71.5045 48.9939 70.5196 48.9939C70.2488 48.9939 69.9718 48.9631 69.6825 48.8954V47.9782C70.0826 48.009 70.2919 48.0275 70.3103 48.0275C70.9197 48.0275 71.3383 47.7751 71.566 47.2765L69.2332 42.2969H70.4458L72.1323 46.0947L73.6773 42.2969H74.8899V42.303Z" fill="white"/>
<path d="M83.5566 48.8892H82.5041V45.873H79.1925V48.8892H78.1338V42.303H79.1925V44.9313H82.5041V42.303H83.5566V48.8892Z" fill="white"/>
<path d="M93.1344 42.1982V48.8891H92.0757V44.3588L87.9763 48.9998H87.6069V42.3029H88.6656V46.8209L92.7712 42.1982H93.1344Z" fill="white"/>
<path d="M100.022 45.2454C100.41 45.3747 100.718 45.5839 100.94 45.8732C101.161 46.1625 101.266 46.5134 101.266 46.9196C101.266 47.4798 101.069 47.9353 100.681 48.2984C100.293 48.6554 99.77 48.8339 99.136 48.8339H97.1294V42.2539H98.619C99.2037 42.2539 99.6839 42.414 100.047 42.7464C100.404 43.0726 100.589 43.4912 100.589 44.0144C100.589 44.5252 100.398 44.9315 100.029 45.2393V45.2454H100.022ZM98.1573 43.1772V44.9499H98.5082C98.8344 44.9499 99.0868 44.8699 99.2653 44.7099C99.4438 44.5499 99.53 44.3282 99.53 44.0636C99.53 43.7927 99.4376 43.5712 99.2653 43.4173C99.0868 43.2572 98.8344 43.1772 98.5082 43.1772H98.1573ZM99.0252 47.8983C99.3945 47.8983 99.6838 47.806 99.8808 47.6275C100.078 47.449 100.182 47.1966 100.182 46.8889C100.182 46.5811 100.084 46.3287 99.8808 46.1379C99.6838 45.9471 99.4007 45.8609 99.0314 45.8609H98.1512V47.9045H99.0314L99.0252 47.8983Z" fill="white"/>
<path d="M113.896 42.1367C114.567 42.1367 115.103 42.3276 115.515 42.6969C115.921 43.0662 116.131 43.5525 116.131 44.1495C116.131 44.7466 115.921 45.239 115.515 45.6145C115.109 45.99 114.567 46.1808 113.896 46.1808H113.17V48.7229H112.111V42.1429H113.89V42.1367H113.896ZM113.17 43.0847V45.2513H113.872C114.241 45.2513 114.53 45.1528 114.727 44.9497C114.924 44.7466 115.029 44.4881 115.029 44.1618C115.029 43.8356 114.93 43.5709 114.727 43.3739C114.53 43.177 114.241 43.0723 113.872 43.0723L113.17 43.0847Z" fill="white"/>
<path d="M121.8 42.1675C122.409 42.1675 122.957 42.3091 123.456 42.5738C123.954 42.8446 124.342 43.2139 124.631 43.6817L123.831 44.2726C123.345 43.5155 122.674 43.1339 121.831 43.1339C121.153 43.1339 120.581 43.3617 120.138 43.8233C119.688 44.2788 119.461 44.8574 119.461 45.5591C119.461 46.2608 119.695 46.8332 120.138 47.2949C120.587 47.7565 121.153 47.9843 121.831 47.9843C122.68 47.9843 123.345 47.6088 123.831 46.8456L124.631 47.4365C124.348 47.9043 123.96 48.2736 123.462 48.5444C122.963 48.8153 122.415 48.9507 121.806 48.9507C120.84 48.9507 120.021 48.6245 119.35 47.972C118.685 47.3257 118.353 46.5132 118.353 45.5468C118.353 44.5927 118.691 43.7802 119.356 43.1216C120.027 42.463 120.84 42.1306 121.812 42.1306L121.8 42.1675Z" fill="white"/>
<path d="M133.144 42.1982V48.8891H132.085V44.3588L127.986 48.9998H127.616V42.3029H128.675V46.8209L132.781 42.1982H133.144Z" fill="white"/>
<path d="M140.038 43.2509H138.604V48.8892H137.545V43.2509H136.123V42.303H140.038V43.2509Z" fill="white"/>
<path d="M153.678 43.2509H152.25V48.8892H151.191V43.2509H149.763V42.303H153.678V43.2509Z" fill="white"/>
<path d="M82.9658 32.879H80.6022V30.7923H82.9658V29.8752H80.6022V28.1886H82.9658V27.2407H79.5435V33.8269H82.9658V32.879Z" fill="white"/>
<path d="M99.1973 32.9715H96.649V30.891H99.1112V29.9738H96.649V28.2873H99.1973V27.3394H95.5903V33.9194H99.1973V32.9715Z" fill="white"/>
<path d="M108.215 47.8858H105.697V45.7991H108.166V44.882H105.697V43.1955H108.215V42.2476H104.645V48.8337H108.215V47.8858Z" fill="white"/>
<path d="M146.895 47.9413H144.439V45.8546H146.895V44.9375H144.439V43.2509H146.895V42.303H143.38V48.8892H146.895V47.9413Z" fill="white"/>
<path d="M128.306 12.3699H129.364V18.9499H128.306V12.3699ZM133.975 18.9561H132.67L129.617 15.4537L132.38 12.3699H133.679L130.946 15.4537L133.975 18.9561Z" fill="white"/>
<path d="M130.183 15.0349H128.669V15.909H130.183V15.0349Z" fill="white"/>
<path d="M135.858 34.0119H134.799V31.002H131.488V34.0119H130.429V27.4319H131.488V30.0541H134.799V27.4319H135.858V34.0119Z" fill="white"/>
<path d="M92.3221 32.879V35.2365H91.2633V33.8269H86.8192V35.2365H85.7605V32.879H86.2714C86.7207 32.4912 87.0593 31.9311 87.2993 31.1986C87.5394 30.4723 87.6563 29.4566 87.6563 28.1825V27.2407H91.5034V32.8851L92.3221 32.879ZM87.4471 32.879H90.4324V28.1825H88.6535C88.635 30.4107 88.2349 31.9803 87.4471 32.879Z" fill="white"/>
<path d="M120.624 27.4135V33.9628H119.571V28.3553H117.645C117.632 29.3771 117.565 30.2573 117.435 30.9775C117.306 31.7038 117.115 32.2701 116.869 32.6886C116.623 33.1072 116.34 33.415 116.032 33.6119C115.724 33.8089 115.355 33.9381 114.936 33.9874V33.0026C115.503 32.8856 115.921 32.467 116.192 31.7469C116.463 31.0328 116.598 29.9372 116.598 28.4599V27.3889L120.624 27.4135Z" fill="white"/>
<path d="M50.2268 35.7743V26.0484C53.5188 25.397 56 22.4615 56 18.9405C56 14.9413 52.7936 11.6966 48.8416 11.6966C46.8778 11.6966 45.0974 12.4965 43.8018 13.7952L34.7774 8.1056C34.81 7.82112 34.8263 7.53663 34.8263 7.24391C34.8263 3.24058 31.6199 0 27.668 0C23.7119 0 20.5096 3.2447 20.5096 7.24391C20.5096 11.2431 23.716 14.4878 27.668 14.4878C30.3284 14.4878 32.6507 13.0201 33.8852 10.8391L42.2495 16.1122C41.8869 16.9822 41.6832 17.9387 41.6832 18.9405C41.6832 22.4615 44.1685 25.397 47.4564 26.0484V35.7743C44.1644 36.4257 41.6832 39.3612 41.6832 42.8822C41.6832 46.8855 44.8896 50.1261 48.8416 50.1261C52.7936 50.1261 56 46.8814 56 42.8822C56 39.3612 53.5188 36.4257 50.2268 35.7743Z" fill="white"/>
<path d="M34.8304 30.9093C34.8304 26.9101 31.624 23.6654 27.672 23.6654C23.72 23.6654 20.5136 26.9101 20.5136 30.9093C20.5136 34.4302 22.9989 37.3616 26.2868 38.0172V47.64C24.5227 47.9904 22.9908 48.9964 21.9478 50.3982L13.9012 45.327C14.1701 44.5643 14.3168 43.7438 14.3168 42.8863C14.3168 39.3653 11.8315 36.4298 8.54361 35.7784V26.0525C11.8356 25.4011 14.3168 22.4656 14.3168 18.9447C14.3168 14.9455 11.1104 11.7008 7.15839 11.7008C3.20233 11.7008 0 14.9455 0 18.9447C0 22.4656 2.48527 25.4011 5.77315 26.0525V35.7784C2.48119 36.4298 0 39.3653 0 42.8863C0 46.8855 3.2064 50.1302 7.15839 50.1302C9.2729 50.1302 11.1715 49.2025 12.4793 47.7307L20.7377 52.9379C20.5911 53.5192 20.5096 54.1253 20.5096 54.7561C20.5096 58.7553 23.716 62 27.668 62C31.6199 62 34.8263 58.7553 34.8263 54.7561C34.8263 51.2351 32.3411 48.2996 29.0532 47.6482V38.0254C32.3451 37.3616 34.8304 34.4302 34.8304 30.9093Z" fill="white"/>
</svg>
